/vscmnt/brussel_pixiu_data/_data_brussel/112/vsc11236/PredSimResults/SUBJ07mtu3D/weighted-expIG/worker_01.mot
version=1
nRows=4
nColumns=50
inDegrees=yes
endheader
                time	         pelvis_tilt	         pelvis_list	     pelvis_rotation	           pelvis_tx	           pelvis_ty	           pelvis_tz	       hip_flexion_r	     hip_adduction_r	      hip_rotation_r	        knee_angle_r	       ankle_angle_r	         mtp_angle_r	       hip_flexion_l	     hip_adduction_l	      hip_rotation_l	        knee_angle_l	       ankle_angle_l	         mtp_angle_l	    lumbar_extension	      lumbar_bending	     lumbar_rotation	 ercspn_r/activation	 intobl_r/activation	 extobl_r/activation	    abd_r/activation	    add_r/activation	hamstrings_r/activation	bifemsh_r/activation	glut_max_r/activation	iliopsoas_r/activation	rect_fem_r/activation	  vasti_r/activation	gastroc_r/activation	 soleus_r/activation	tib_ant_r/activation	 ercspn_l/activation	 intobl_l/activation	 extobl_l/activation	    abd_l/activation	    add_l/activation	hamstrings_l/activation	bifemsh_l/activation	glut_max_l/activation	iliopsoas_l/activation	rect_fem_l/activation	  vasti_l/activation	gastroc_l/activation	 soleus_l/activation	tib_ant_l/activation	
          1.09238794	         -6.29273204	         -3.80155286	          8.43396223	          1.38733268	          0.84603428	         -0.01147006	         30.65110883	          0.14149013	         -6.40306568	         -2.73809821	          7.52024309	          0.25050297	        -13.13185778	         -4.31460710	          4.51321190	         -7.37151266	          8.36227540	         27.46231116	         -7.09774635	          2.26768219	         -3.66857211	          0.10202312	          0.17306931	          0.02514396	          0.01182066	          0.11974337	          0.06542041	          0.22151665	          0.01000001	          0.07827072	          0.01000007	          0.01000002	          0.02596355	          0.01142735	          0.27173150	          0.03477992	          0.01000000	          0.01000002	          0.03488758	          0.03711738	          0.02842535	          0.14485002	          0.02728020	          0.36267026	          0.01000012	          0.01000004	          0.26689147	          0.25431207	          0.01957375	
          1.10331182	         -6.35698366	         -3.65500354	          8.29659990	          1.40351289	          0.84419134	         -0.01120756	         30.75942906	          0.36540662	         -5.54091797	         -4.50674702	          7.20010969	          0.25184517	        -13.17721502	         -4.15079363	          3.96196807	         -9.27534839	          7.65769785	         29.19588078	         -6.91314673	          2.68681248	         -3.78503059	          0.08630926	          0.14641275	          0.02127123	          0.01000001	          0.19679091	          0.05534421	          0.18739813	          0.07862890	          0.06621526	          0.01000010	          0.01000001	          0.02533211	          0.01450134	          0.27438421	          0.09805043	          0.01000001	          0.01000009	          0.02951410	          0.08281753	          0.02404723	          0.12253985	          0.02307843	          0.38375097	          0.01000009	          0.01000047	          0.22578415	          0.23620623	          0.01655895	
          1.11423569	         -6.40406248	         -3.51718466	          8.10527100	          1.41999358	          0.84247208	         -0.01093486	         30.66458551	          0.53761986	         -4.64219186	         -6.21408107	          6.84723203	          0.23649107	        -13.04814613	         -3.98072322	          3.35488158	        -11.56743549	          6.86138677	         30.83762972	         -6.70809476	          3.13625553	         -3.87279254	          0.07361979	          0.12386197	          0.01799498	          0.07383425	          0.17465895	          0.06287905	          0.15853465	          0.08750303	          0.05601662	          0.01000003	          0.01000000	          0.02143040	          0.01226782	          0.32067921	          0.11888045	          0.01000000	          0.01000005	          0.02496827	          0.07006186	          0.02078326	          0.10366596	          0.01952384	          0.36153705	          0.01000007	          0.01000002	          0.19100830	          0.20719490	          0.01400850	
          1.12515957	         -6.43734033	         -3.38142424	          7.86039753	          1.43654722	          0.84106383	         -0.01056976	         30.40251510	          0.71985853	         -3.82818065	         -7.62543017	          6.37455025	          0.22466097	        -12.66480067	         -3.80725585	          2.70826349	        -14.34067307	          5.92898635	         32.27668515	         -6.50849610	          3.59186566	         -3.93297539	          0.09007777	          0.10478443	          0.01522335	          0.12711150	          0.18309497	          0.05811539	          0.13411676	          0.12384519	          0.04738879	          0.01000002	          0.01000000	          0.01812964	          0.01037830	          0.34754045	          0.14827433	          0.01000000	          0.01000002	          0.02112259	          0.07675642	          0.01758236	          0.08769907	          0.01651672	          0.34321842	          0.01000003	          0.01000002	          0.16158871	          0.17528221	          0.01185087	
